<svg xmlns="http://www.w3.org/2000/svg" viewBox="0 0 100 100">
  <!-- Face -->
  <ellipse cx="50" cy="55" rx="40" ry="38" fill="#F5A623"/>
  <!-- Ears -->
  <path d="M15 30 L25 10 L40 30 Z" fill="#F5A623"/>
  <path d="M60 30 L75 10 L85 30 Z" fill="#F5A623"/>
  <path d="M20 28 L28 15 L36 28 Z" fill="#FFB6C1"/>
  <path d="M64 28 L72 15 L80 28 Z" fill="#FFB6C1"/>
  <!-- White areas -->
  <ellipse cx="50" cy="65" rx="25" ry="20" fill="#FFF"/>
  <!-- Stripes -->
  <path d="M30 25 Q35 35 30 45" stroke="#2C1810" stroke-width="4" fill="none"/>
  <path d="M70 25 Q65 35 70 45" stroke="#2C1810" stroke-width="4" fill="none"/>
  <path d="M25 40 Q30 50 25 55" stroke="#2C1810" stroke-width="3" fill="none"/>
  <path d="M75 40 Q70 50 75 55" stroke="#2C1810" stroke-width="3" fill="none"/>
  <!-- Eyes -->
  <ellipse cx="38" cy="48" rx="6" ry="7" fill="#2C1810"/>
  <ellipse cx="62" cy="48" rx="6" ry="7" fill="#2C1810"/>
  <circle cx="40" cy="46" r="2" fill="#FFF"/>
  <circle cx="64" cy="46" r="2" fill="#FFF"/>
  <!-- Nose -->
  <ellipse cx="50" cy="62" rx="7" ry="5" fill="#FF6B6B"/>
  <!-- Mouth -->
  <path d="M43 70 Q50 78 57 70" stroke="#2C1810" stroke-width="2" fill="none"/>
  <!-- Whiskers -->
  <line x1="20" y1="60" x2="35" y2="65" stroke="#2C1810" stroke-width="1.5"/>
  <line x1="20" y1="68" x2="35" y2="68" stroke="#2C1810" stroke-width="1.5"/>
  <line x1="65" y1="65" x2="80" y2="60" stroke="#2C1810" stroke-width="1.5"/>
  <line x1="65" y1="68" x2="80" y2="68" stroke="#2C1810" stroke-width="1.5"/>
</svg>
