<svg xmlns="http://www.w3.org/2000/svg" viewBox="0 0 100 100">
  <!-- Ears -->
  <path d="M20 45 L15 5 L40 35 Z" fill="#6B6B6B"/>
  <path d="M80 45 L85 5 L60 35 Z" fill="#6B6B6B"/>
  <path d="M22 40 L20 15 L38 35 Z" fill="#FFB6C1"/>
  <path d="M78 40 L80 15 L62 35 Z" fill="#FFB6C1"/>
  <!-- Face -->
  <ellipse cx="50" cy="55" rx="38" ry="40" fill="#808080"/>
  <!-- Lighter fur -->
  <ellipse cx="50" cy="60" rx="28" ry="30" fill="#A0A0A0"/>
  <!-- Muzzle -->
  <ellipse cx="50" cy="70" rx="18" ry="15" fill="#D3D3D3"/>
  <!-- Eyes -->
  <ellipse cx="35" cy="45" rx="7" ry="8" fill="#FFD700"/>
  <ellipse cx="65" cy="45" rx="7" ry="8" fill="#FFD700"/>
  <ellipse cx="35" cy="45" rx="3" ry="5" fill="#1a1a1a"/>
  <ellipse cx="65" cy="45" rx="3" ry="5" fill="#1a1a1a"/>
  <!-- Nose -->
  <ellipse cx="50" cy="68" rx="8" ry="6" fill="#1a1a1a"/>
  <!-- Mouth -->
  <path d="M50 74 L50 80" stroke="#1a1a1a" stroke-width="2"/>
  <path d="M40 80 Q50 88 60 80" stroke="#1a1a1a" stroke-width="2" fill="none"/>
</svg>
